<svg xmlns="http://www.w3.org/2000/svg" viewBox="0 0 321.06 90.54"><defs><style>.cls-1{fill:#eeeeec;}</style></defs><title>rentgoer-logo_1</title><g id="Layer_2" data-name="Layer 2"><g id="Layer_1-2" data-name="Layer 1"><path class="cls-1" d="M110.22,50.31l-4.35,20.52h-7l9.79-46.1h8.93c7.28,0,10.7,3.89,9.11,11.73l-.5,2.44c-1.26,6.21-3.79,8-6.46,8.7,1.85,1.28,3.45,3.4,1.87,10.54a99.91,99.91,0,0,0-2.23,12.69h-6.92c.07-2.81,1.35-8.61,2.51-14.09,1-4.81.48-6.43-3-6.43Zm1.22-5.86H113c4,0,5.38-1.15,6.29-6l.44-2.4c.65-3.5.21-5.48-3.34-5.48h-2Z"/><path class="cls-1" d="M148.79,49.53H139l-3.09,14.9h11.89l-2.27,6.4h-18l9.79-46.1h17.37l-1.4,6.4H142.87l-2.52,12h9.84Z"/><path class="cls-1" d="M152.81,70.83l9.8-46.1h8.22c.38,13.92.83,29.88.77,32.05h.08c1-6,2.13-12.5,3.71-20.08l2.54-12h6.61l-9.8,46.1h-8c-.31-11.75-.88-30.8-.83-32.73h-.07c-.91,5.65-2,11.83-3.74,20.12l-2.64,12.61Z"/><path class="cls-1" d="M196.35,31.19h-7.07l1.39-6.46h21.16l-1.39,6.46h-7.12l-8.4,39.64h-7Z"/><path class="cls-1" d="M229.13,70.83h-5.66a17.16,17.16,0,0,1,.51-3.44,8,8,0,0,1-7.14,4.11c-7,0-7.94-5.94-6.34-13.55L215,36.69c1.61-7.66,4.15-12.75,12.3-12.63,9.64.12,9.93,7.46,8.93,12.29l-.2,1H229l.26-1.54c.55-3.17.48-5.74-2.49-5.74-2.17,0-3.41,1.25-4.45,6.21l-4.7,22.4c-.89,4.14-.76,6.82,2.19,6.82s4.2-2.67,5.4-8.38l1.18-5.75h-4.1l1.27-6.09H234.6Z"/><path class="cls-1" d="M266.09,37.34l-4.58,21.6c-1.64,7.86-4.11,12.56-12.6,12.56-8.22,0-10.56-5.33-8.94-13.28l4.7-22.68c1.62-7.87,5.74-11.48,12.19-11.48C264.32,24.06,267.89,29,266.09,37.34Zm-14.26-1.75-5,23.84c-.72,3.31-.44,6.1,2.83,6.1,2.7,0,3.85-2.28,4.63-5.86l5-23.78c.72-3.39.08-5.8-3-5.8C254,30.09,252.58,31.91,251.83,35.59Z"/><path class="cls-1" d="M288.82,49.53H279l-3.09,14.9h11.9l-2.27,6.4h-18l9.8-46.1h17.36l-1.4,6.4H282.9l-2.52,12h9.84Z"/><path class="cls-1" d="M304.17,50.31l-4.35,20.52h-7l9.79-46.1h8.93c7.28,0,10.7,3.89,9.11,11.73l-.5,2.44c-1.26,6.21-3.8,8-6.46,8.7,1.84,1.28,3.45,3.4,1.87,10.54a100.1,100.1,0,0,0-2.24,12.69h-6.91c.07-2.81,1.35-8.61,2.51-14.09,1-4.81.48-6.43-3.05-6.43Zm1.22-5.86h1.52c4,0,5.38-1.15,6.29-6l.44-2.4c.65-3.5.21-5.48-3.34-5.48h-2Z"/><g id="g4737"><path id="path4735" class="cls-1" d="M41.58,0A45.43,45.43,0,0,0,13.75,12.71a42.35,42.35,0,0,0-6.19,7.41A45.43,45.43,0,0,0,.21,39.6a75.71,75.71,0,0,0,0,11.27A46.19,46.19,0,0,0,7.45,70.23,45.74,45.74,0,0,0,32.5,88.73a46.7,46.7,0,0,0,21.45,1c.95-.19,1.84-.4,2-.46s-.52-.94-2.62-3.17c-2.44-2.65-2.87-3-3.19-3s-1.41.15-2.66.23A38.17,38.17,0,0,1,9.61,59.28,39.16,39.16,0,0,1,7.54,38.76,38.22,38.22,0,0,1,39,7.65a42.16,42.16,0,0,1,11.66-.11,38.19,38.19,0,0,1,17.06,68.6A31.6,31.6,0,0,1,63.14,79c-.11,0-2.52-2.52-5.36-5.58l-5.19-5.6,9.2,0,9.22,0,0-20.95,0-20.94h-26c-24.18,0-26,0-26,.27s0,9.57,0,20.94l0,20.68H29V61.18H26V32.3H64.19V61.18l-13.35,0c-13.32,0-13.32,0-13,.37S43.13,67.32,49.27,74,60.76,86.36,61.12,86.79l.69.78,1.3-.61a45.71,45.71,0,0,0,13.75-9.2,41.92,41.92,0,0,0,6.19-7.41,45.37,45.37,0,0,0,7.27-18.93A70.75,70.75,0,0,0,90.4,39.6,45.7,45.7,0,0,0,56.63,1.35,39.44,39.44,0,0,0,46,0C43.93,0,41.93,0,41.58,0Z"/></g></g></g></svg>